:FULLY-SPECIFIED
:FORCE-ALL-JOINTS-BE-3DOF
:DEGREES
324
root 9.72369 16.4736 9.17779 7.3292 9.97719 3.58955
lfemur 20.03 5.012 -20.789
ltibia 7.71316 0 0
lfoot -3.7983 -3.38971 0
ltoes -6.37841 0 0
rfemur -41.9723 4.15954 12.4373
rtibia 32.041 0 0
rfoot -18.0245 -6.86532 0
rtoes -16.6495 0 0
lowerback -8.03327 -5.10992 -6.13536
upperback -1.31602 -6.34018 2.23732
thorax 4.02373 -3.26217 5.01237
lowerneck -18.6312 -5.02121 -12.9608
upperneck 21.2044 -6.49981 13.1127
head 10.7803 -2.53906 5.98493
lclavicle -1.00505e-15 -5.50716e-15 0
lhumerus -20.9555 -35.9222 97.9676
lradius 38.0205 0 0
lwrist 9.87193 0 0
lhand -7.7613 -24.1225 0
lfingers 7.12502 0 0
lthumb 18.1387 5.05553 0
rclavicle -1.00505e-15 -5.50716e-15 0
rhumerus -49.6282 4.13137 -81.795
rradius 29.3845 0 0
rwrist -14.7698 0 0
rhand -27.4646 -23.7918 0
rfingers 7.12502 0 0
rthumb -0.868854 -53.7723 0
325
root 9.69852 16.472 9.37178 7.21548 10.1194 3.29031
lfemur 19.9893 5.22067 -19.9433
ltibia 9.17013 0 0
lfoot -2.39188 -3.56152 0
ltoes -6.83625 0 0
rfemur -41.7518 3.8528 13.2215
rtibia 33.0257 0 0
rfoot -17.2763 -6.13524 0
rtoes -16.438 0 0
lowerback -7.95756 -5.12093 -5.91124
upperback -1.33856 -6.38091 2.32159
thorax 3.94728 -3.27777 4.97862
lowerneck -18.7385 -5.01575 -12.9142
upperneck 21.2217 -6.49393 13.1073
head 10.8046 -2.52953 5.97647
lclavicle -1.05719e-15 -7.17016e-15 0
lhumerus -21.546 -35.1523 98.4059
lradius 37.3378 0 0
lwrist 9.32569 0 0
lhand -7.9912 -24.3181 0
lfingers 7.12502 0 0
lthumb 17.9174 4.87887 0
rclavicle -1.05719e-15 -7.17016e-15 0
rhumerus -49.5142 4.0759 -81.7044
rradius 29.2354 0 0
rwrist -14.4743 0 0
rhand -27.4134 -24.0056 0
rfingers 7.12502 0 0
rthumb -0.819444 -53.9864 0
326
root 9.67307 16.4714 9.566 7.09772 10.2531 2.98163
lfemur 19.8946 5.43397 -19.0904
ltibia 10.6989 0 0
lfoot -0.981756 -3.71746 0
ltoes -7.29408 0 0
rfemur -41.5092 3.53917 14.0308
rtibia 34.0317 0 0
rfoot -16.5182 -5.39057 0
rtoes -16.226 0 0
lowerback -7.87738 -5.12824 -5.6777
upperback -1.35982 -6.41772 2.40753
thorax 3.86858 -3.29129 4.94209
lowerneck -18.853 -5.00988 -12.8652
upperneck 21.2413 -6.48711 13.1003
head 10.8309 -2.51936 5.96722
lclavicle -1.05047e-15 -8.83779e-15 0
lhumerus -22.1444 -34.346 98.8374
lradius 36.6228 0 0
lwrist 8.77206 0 0
lhand -8.24026 -24.5122 0
lfingers 7.12502 0 0
lthumb 17.6776 4.7052 0
rclavicle -1.05047e-15 -8.83779e-15 0
rhumerus -49.3898 4.0315 -81.6169
rradius 29.1053 0 0
rwrist -14.1906 0 0
rhand -27.3686 -24.2344 0
rfingers 7.12502 0 0
rthumb -0.776165 -54.2154 0
327
root 9.64754 16.4718 9.75993 6.97772 10.3776 2.66685
lfemur 19.7432 5.64948 -18.2395
ltibia 12.2883 0 0
lfoot 0.413876 -3.85369 0
ltoes -7.74596 0 0
rfemur -41.2443 3.22382 14.8562
rtibia 35.0435 0 0
rfoot -15.7599 -4.63992 0
rtoes -16.0146 0 0
lowerback -7.79379 -5.13127 -5.43737
upperback -1.37975 -6.44955 2.49403
thorax 3.78834 -3.30224 4.90307
lowerneck -18.9724 -5.00412 -12.815
upperneck 21.2624 -6.48011 13.0924
head 10.8586 -2.50896 5.9575
lclavicle -9.85989e-16 -1.04862e-14 0
lhumerus -22.7487 -33.5147 99.2589
lradius 35.8859 0 0
lwrist 8.21868 0 0
lhand -8.50415 -24.7014 0
lfingers 7.12502 0 0
lthumb 17.4236 4.53734 0
rclavicle -9.85989e-16 -1.04862e-14 0
rhumerus -49.2552 4.00009 -81.5341
rradius 28.9961 0 0
rwrist -13.9227 0 0
rhand -27.3305 -24.4738 0
rfingers 7.12502 0 0
rthumb -0.739317 -54.4548 0
328
root 9.62212 16.4732 9.95306 6.85729 10.4921 2.34931
lfemur 19.5326 5.86476 -17.4002
ltibia 13.9269 0 0
lfoot 1.77682 -3.96637 0
ltoes -8.18597 0 0
rfemur -40.957 2.91189 15.6886
rtibia 36.0453 0 0
rfoot -15.0111 -3.89185 0
rtoes -15.8049 0 0
lowerback -7.70783 -5.12949 -5.19285
upperback -1.39832 -6.47532 2.57996
thorax 3.70727 -3.31014 4.86184
lowerneck -19.0945 -4.99899 -12.7648
upperneck 21.284 -6.47369 13.0843
head 10.8872 -2.49876 5.94761
lclavicle -8.6487e-16 -1.20917e-14 0
lhumerus -23.3569 -32.6699 99.6674
lradius 35.1372 0 0
lwrist 7.67319 0 0
lhand -8.77854 -24.8828 0
lfingers 7.12502 0 0
lthumb 17.1594 4.37813 0
rclavicle -8.6487e-16 -1.20917e-14 0
rhumerus -49.1107 3.98361 -81.4576
rradius 28.9095 0 0
rwrist -13.6747 0 0
rhand -27.2993 -24.7196 0
rfingers 7.12502 0 0
rthumb -0.709202 -54.7007 0
329
root 9.59699 16.4758 10.1449 6.73823 10.5959 2.03237
lfemur 19.2603 6.07739 -16.5816
ltibia 15.6033 0 0
lfoot 3.08889 -4.05166 0
ltoes -8.60817 0 0
rfemur -40.6473 2.60854 16.5192
rtibia 37.0217 0 0
rfoot -14.2815 -3.15497 0
rtoes -15.5982 0 0
lowerback -7.62056 -5.12234 -4.94677
upperback -1.4155 -6.49395 2.66418
thorax 3.62607 -3.3145 4.81869
lowerneck -19.2171 -4.99501 -12.7156
upperneck 21.3053 -6.46861 13.0767
head 10.916 -2.4892 5.93789
lclavicle -6.88224e-16 -1.36303e-14 0
lhumerus -23.9669 -31.8231 100.06
lradius 34.3871 0 0
lwrist 7.14322 0 0
lhand -9.0591 -25.053 0
lfingers 7.12502 0 0
lthumb 16.8893 4.23041 0
rclavicle -6.88224e-16 -1.36303e-14 0
rhumerus -48.9565 3.98401 -81.3891
rradius 28.8473 0 0
rwrist -13.4506 0 0
rhand -27.2754 -24.9676 0
rfingers 7.12502 0 0
rthumb -0.68612 -54.9486 0
